PathFileType	4	(X/Y/Z)	Patient4_TMGait_0pt2_03_right_02.trc.trc
DataRate	CameraRate	NumFrames	NumMarkers	Units	OrigDataRate	OrigDataStartFrame	OrigNumFrames
47.457627118644	47.457627118644	5	33	mm	47.457627118644	36	       141
Frame#	Time	Sacral			L.Shoulder			Chest			R.Shoulder			Neck			R.ASIS			L.ASIS			R.Thigh.Superior			R.Thigh.Lateral			R.Thigh.Inferior			R.Patella			L.Thigh.Superior			L.Thigh.Lateral			L.Thigh.Inferior			L.Patella			L.Shank.Superior			L.Shank.Lateral			L.Shank.Inferior			R.Shank.Superior			R.Shank.Lateral			R.Shank.Inferior			R.Heel			R.Midfoot.Superior			R.Midfoot.Lateral			R.Toe			L.Heel			L.Midfoot.Lateral			L.Midfoot.Superior			L.Toe			L.Elbow			L.Wrist			R.Elbow			R.Wrist			
		X1	Y1	Z1	X2	Y2	Z2	X3	Y3	Z3	X4	Y4	Z4	X5	Y5	Z5	X6	Y6	Z6	X7	Y7	Z7	X8	Y8	Z8	X9	Y9	Z9	X10	Y10	Z10	X11	Y11	Z11	X12	Y12	Z12	X13	Y13	Z13	X14	Y14	Z14	X15	Y15	Z15	X16	Y16	Z16	X17	Y17	Z17	X18	Y18	Z18	X19	Y19	Z19	X20	Y20	Z20	X21	Y21	Z21	X22	Y22	Z22	X23	Y23	Z23	X24	Y24	Z24	X25	Y25	Z25	X26	Y26	Z26	X27	Y27	Z27	X28	Y28	Z28	X29	Y29	Z29	X30	Y30	Z30	X31	Y31	Z31	X32	Y32	Z32	X33	Y33	Z33	

36	4.867500000000	743.182723349107	1003.045339521876	452.402823181040	956.165533830803	1419.177931181779	275.282854022069	1018.731532967663	1362.943476257168	458.579017282951	903.604497873422	1453.063005969571	603.709869938953	906.881041500591	1492.897734969760	421.062541311236	956.920442573451	943.773698965040	599.609804630990	975.606031038745	959.343017723222	324.036509414718	1017.823286745963	747.704524690422	569.896976418413	944.551352172615	633.380060209510	631.367079117161	1029.446021247956	585.063600899904	555.345446221953	1039.437785158792	496.669373007492	565.320388987755	980.664389508580	733.185725389564	343.967816627292	870.264691100577	631.929925929730	274.644956697636	937.387589304063	540.980575723808	335.111846886179	924.772872032485	468.780434346277	338.347215490916	879.423922645000	405.721412583944	329.587083753354	763.984950362778	316.378887682982	277.678162411808	791.202560866935	192.127914856997	341.039565799998	1010.643486342132	407.097073215794	576.083909874979	941.252274091200	307.215463440628	646.834576689866	981.413686225736	208.595731961584	587.747159286220	847.723669965695	43.264598900727	576.837440275292	1021.231304623339	97.921681169053	597.615104200516	937.355162463474	37.485828578819	644.068635501626	1143.210441814444	47.468580206343	614.737797787618	636.769542349489	52.503588000440	378.738887744750	712.761416102552	41.256097230786	301.113826983488	800.365083794554	97.712479016382	327.316097250105	924.772727955365	38.366068551997	303.172408809510	1029.611425019325	1078.864470146208	153.918203032397	1228.994573479626	910.966293741897	168.535754539813	744.850818829277	1156.787746578889	732.920682782533	741.838022975671	895.716750512944	765.768634908509	
37	4.888571428571	744.455550332318	1003.884767017179	460.196430861354	955.286951846585	1419.652643040665	279.983495448417	1020.395851419413	1363.516884493145	462.495288636810	907.047546750674	1453.493022795678	609.101255867816	908.236962229923	1493.531130013191	426.325255127120	959.834255075666	944.398144322221	605.006881135864	975.618491197676	960.051947289280	329.264786161622	1018.629473393738	747.337350421206	574.253389671960	944.446126029444	633.315779271431	635.437540292536	1028.275901309465	584.592203641406	558.572594031154	1037.329137766146	496.092711520504	567.700300432665	982.264587194030	734.024354816703	348.081323126144	872.621443525170	632.421449904710	278.568042030412	941.547406283395	541.294597679604	337.654874528480	929.363402186494	468.106238623589	339.626033146329	882.135230210065	405.888207112583	330.978689151510	764.648653887552	319.132383649882	279.491510656336	790.300967766803	193.689937781798	340.933999349026	1008.202614034213	406.671585021029	578.012439400675	938.810312038186	306.614127074506	648.445783091877	977.978797703283	208.239352479279	588.344403898294	843.422133584052	43.286525977092	576.863169049976	1016.991693592734	97.747066487676	597.650120607223	933.059339051912	37.443251658912	644.093420778058	1139.003862437390	47.033232865620	614.797707346115	633.406801334815	56.736242314710	378.309224347840	709.126097107327	43.107452925651	300.863732815216	797.932152721897	98.268108671083	326.445163701913	920.869197221191	38.112557646592	303.056603854058	1017.863649859058	1075.560182383524	161.110851876338	1204.276657189023	893.796296800398	173.085143105962	753.993698269375	1154.909026586855	741.815263237418	757.198518245903	894.126131874863	775.998300616686	
38	4.909642857143	745.598506485645	1004.684764204247	468.115348544009	953.986783650784	1420.053273946521	284.608992477314	1021.881950175230	1364.071491107938	466.224371015098	910.534363554831	1453.891188005490	614.440032373277	909.395824035068	1494.111004722339	431.535833621337	962.740824756681	944.968223752537	610.375054515880	975.382743042889	960.713415905013	334.541763046875	1019.325155447781	746.867194298903	578.610704620256	944.241407777008	633.183291373853	639.574282891047	1026.920122069225	584.074878652127	561.818064161409	1034.992884444602	495.516522290945	570.118086409812	984.618512631253	735.106385261638	352.358822026245	876.496160919556	632.765071896394	282.482101894961	947.618353094643	541.742524139462	340.285123506413	936.028918639893	467.389815931182	340.801108406941	886.661892481422	406.030371113337	332.253417047210	766.898958820436	322.349170087642	281.232390550674	790.493434223329	195.704448167126	340.647490933336	1005.589325842045	406.231444789506	579.992379155672	936.225516222557	305.946156038519	650.054998603777	974.464905454658	207.865489250247	588.955735000282	839.086809451956	43.272794394493	576.882727491378	1012.709568984040	97.557803158852	597.656263765245	928.741664839492	37.383809596400	644.106599676123	1134.765425866405	46.624747048382	614.831905954387	630.670303864810	62.381717476527	377.705976040653	705.847444194072	45.773728646923	300.502761289459	796.116426179667	99.013916504445	325.364198820858	916.945513641112	37.823692897721	302.983276912050	1005.125172135294	1072.423672728027	168.616742908576	1177.001974965313	877.231062068625	177.968705562955	764.194394477454	1152.583680365418	750.691285470887	774.548595032321	892.246728155263	785.919036960621	
39	4.930714285714	746.607978508124	1005.383644912189	476.163440740584	952.247325138609	1420.335856319297	289.167604716008	1023.161632582451	1364.548748132823	469.760107135102	914.057274873759	1454.215609434108	619.710939274095	910.337302568441	1494.586884557848	436.694428457676	965.624620986102	945.448806201710	615.690449818450	974.849895306998	961.268943697688	339.845215763158	1019.971411634978	746.314970812800	582.919561466580	944.074583487477	632.970751081791	643.757074404415	1025.516770170495	583.524310577274	565.054090033724	1032.604780244485	494.927997723782	572.565174319600	987.739231429393	736.467294047335	356.790451262481	881.969439457938	633.013159956747	286.346703227252	955.656988081298	542.426097451867	342.994179267669	944.846863793877	466.763385369261	341.890102679159	893.155695575306	406.231138919623	333.400782103400	770.936306042569	326.126268297359	282.858009067526	791.958830357764	198.304756152551	340.170576986118	1002.943566025248	405.758808211730	582.017154217124	933.618417784157	305.216470208134	651.671403196863	970.944908547635	207.466763029514	589.584428302629	834.744127534086	43.235487794643	576.907728315798	1008.410801707062	97.366023589800	597.650280075881	924.424244761096	37.317455610901	644.123734803295	1130.519419026969	46.250476028062	614.852474866292	628.802231441818	69.764118947701	376.915036524169	703.074962738328	49.539460983199	300.024756156835	795.045866296844	100.054592776951	324.090755403602	912.974912682379	37.454329163711	302.965962702905	991.422828249075	1069.509537568926	176.338026956351	1147.391111657409	861.670045233522	183.243374740379	775.469834890290	1149.834300702471	759.510774563745	793.982079402303	890.167718794342	795.428554433821	
40	4.951785714286	747.483641361256	1005.907598200603	484.336049203466	950.063870099035	1420.450645677914	293.669585383008	1024.212122322206	1364.876203447407	473.099435796714	917.611120883135	1454.411736855217	624.896921340014	911.050771358810	1494.900930995484	441.803017190115	968.462740826897	945.797968136152	620.924871495600	973.988191104241	961.656755403180	345.141808258388	1020.630566301379	745.695266558854	587.128745427202	944.086459948367	632.656283743941	647.954432290477	1024.215391872835	582.943351962641	568.243910023690	1030.358698290865	494.301523482414	575.024327028108	991.604055745289	738.149314759086	361.361470553086	889.059697478660	633.242643515204	290.124647200996	965.638785375686	543.468788566049	345.772264535295	955.820005558982	466.388338360617	342.925436577781	901.706434639640	406.591134185961	334.428180961592	776.911636983106	330.556622689085	284.335287801518	794.846143410863	201.622628282898	339.515424991729	1000.414920782215	405.226482553825	584.070247461292	931.111088157316	304.425795815747	653.294655803486	967.489494628847	207.030373686000	590.228660898971	830.414142393874	43.185903846869	576.946013771874	1004.116945358531	97.179664534112	597.646735032887	920.122356829486	37.250985675231	644.155713590998	1126.284126364008	45.909425707066	614.869628566173	628.056208369954	79.172118110532	375.942685294044	700.974348901676	54.694687031282	299.436534115269	794.834460047844	101.519692880196	322.666830942709	908.937837729804	36.952141537074	303.011020726079	976.814197117517	1066.864809685803	184.170860179092	1115.778952874027	847.469520239666	188.983353226409	787.821005285838	1146.690841760535	768.225416505291	815.549632021697	888.003809812623	804.420760103695	
